<svg xmlns="http://www.w3.org/2000/svg" viewBox="0 0 95.865 100.5"><defs><style>.a{fill:#202126;}.b,.c{fill:#fff;}.b{stroke:#1d2c36;}</style></defs><g transform="translate(-40.05 -22.118)"><rect class="a" width="95.865" height="94.915" rx="17" transform="translate(40.05 27.703)"/><g transform="translate(48.626 22.618)"><path class="b" d="M36.2,37.507a3.62,3.62,0,0,0,3.776,3.381h0a3.62,3.62,0,0,0,3.776-3.381V19.781A3.62,3.62,0,0,0,39.976,16.4h0A3.62,3.62,0,0,0,36.2,19.781Z" transform="translate(-36.2 -16.4)"/><path class="b" d="M47.7,37.507a3.62,3.62,0,0,0,3.776,3.381h0a3.62,3.62,0,0,0,3.776-3.381V19.781A3.62,3.62,0,0,0,51.476,16.4h0A3.62,3.62,0,0,0,47.7,19.781Z" transform="translate(-33.692 -16.4)"/><path class="b" d="M59.2,37.507a3.62,3.62,0,0,0,3.776,3.381h0a3.737,3.737,0,0,0,3.9-3.381V19.781a3.657,3.657,0,0,0-3.9-3.381h0A3.62,3.62,0,0,0,59.2,19.781Z" transform="translate(-31.185 -16.4)"/><path class="b" d="M70.6,37.507a3.62,3.62,0,0,0,3.776,3.381h0a3.62,3.62,0,0,0,3.776-3.381V19.781A3.62,3.62,0,0,0,74.376,16.4h0A3.62,3.62,0,0,0,70.6,19.781Z" transform="translate(-28.699 -16.4)"/><path class="b" d="M82.1,37.507a3.62,3.62,0,0,0,3.776,3.381h0a3.62,3.62,0,0,0,3.776-3.381V19.781A3.62,3.62,0,0,0,85.876,16.4h0A3.62,3.62,0,0,0,82.1,19.781Z" transform="translate(-26.191 -16.4)"/><path class="b" d="M93.6,37.507a3.657,3.657,0,0,0,3.9,3.381h0a3.62,3.62,0,0,0,3.776-3.381V19.781A3.62,3.62,0,0,0,97.5,16.4h0a3.737,3.737,0,0,0-3.9,3.381Z" transform="translate(-23.683 -16.4)"/></g><g transform="translate(73.401 67.567)"><path class="c" d="M51.3,61.9H79.533v5.771a33.85,33.85,0,0,0-6.157,6.363,33.355,33.355,0,0,0-4.75,9.248,38.7,38.7,0,0,0-1.847,9.4H57.193A44.639,44.639,0,0,1,60.8,80.026a49.447,49.447,0,0,1,7.74-10.95H51.3Z" transform="translate(-51.3 -61.9)"/></g></g></svg>