<svg xmlns="http://www.w3.org/2000/svg" viewBox="0 0 189.842 102.868"><defs><style>.a,.c{fill:#202126;}.a,.b{stroke:#202126;}.a{stroke-miterlimit:10;}.b{fill:#fff;}.d{fill:none;}</style></defs><g transform="translate(0 2.368)"><path class="a" d="M113.84,50.845l-1.053-.789.526-.263L70.682,15.056S71.208,3.477,64.1,8.477,28.84,11.108,28.84,11.108,13.051,45.319,14.893,45.319c3.421,0,11.579,5.526,21.053,13.947C46.735,68.74,61.735,76.635,69.1,80.056L73.84,83.74a6.464,6.464,0,0,0,3.947,1.316,6.869,6.869,0,0,0,5.263-2.632,6.472,6.472,0,0,0,.526-6.842l2.895,2.105A6.464,6.464,0,0,0,90.419,79a6.869,6.869,0,0,0,5.263-2.632,6.763,6.763,0,0,0,.789-6.316l.789.526a6.464,6.464,0,0,0,3.947,1.316,6.869,6.869,0,0,0,5.263-2.632,6.714,6.714,0,0,0,0-7.895,6.288,6.288,0,0,0,3.684,1.316,6.869,6.869,0,0,0,5.263-2.632A6.7,6.7,0,0,0,113.84,50.845Z" transform="translate(24.055 11.786)"/><g transform="translate(53.108 61.579)"><path class="b" d="M69.178,44.716a7.19,7.19,0,0,0-5-2.105,8.113,8.113,0,0,0,.263-2.632,6.989,6.989,0,0,0-2.895-5.789,9.2,9.2,0,0,0-5.789-2.105,7.286,7.286,0,0,0-2.368.263,8.843,8.843,0,0,0-2.632-4.211,8.95,8.95,0,0,0-12.105.526l-.526.263a10.014,10.014,0,0,0-2.368-3.421,8.95,8.95,0,0,0-12.105.526L22.336,28.4a7.514,7.514,0,0,0-2.105,6.053,6.989,6.989,0,0,0,2.895,5.789,9.2,9.2,0,0,0,5.789,2.105h1.053A9.1,9.1,0,0,0,32.6,47.874a9.2,9.2,0,0,0,5.789,2.105,3.338,3.338,0,0,0,1.579-.263,8.755,8.755,0,0,0,2.895,5.526,9.2,9.2,0,0,0,5.789,2.105A9.756,9.756,0,0,0,52.6,56.295a15.336,15.336,0,0,0,2.895,3.421A8.95,8.95,0,0,0,67.6,59.189l2.895-2.895A7.514,7.514,0,0,0,72.6,50.242,17.533,17.533,0,0,0,69.178,44.716Z" transform="translate(-20.181 -23.4)"/></g><g transform="translate(28.158 16.842)"><path class="c" d="M10.7,48.768,31.753,6.4l9.737,4.474L20.437,53.242Z" transform="translate(-10.7 -6.4)"/></g><g transform="translate(0 -2)"><path class="c" d="M0,56.316,23.947,66.842,51.842,10.526,28.158,0Z"/></g><g transform="translate(75.263 16.579)"><path class="b" d="M92.811,59.458c-2.368,0-4.737-2.368-9.474-7.895-7.632-8.421-20-22.632-36.579-27.895l-4.474,4.211a7.54,7.54,0,0,1-5.789,2.632,7.348,7.348,0,0,1-5.263-2.105A7.406,7.406,0,0,1,28.6,22.879a7.915,7.915,0,0,1,2.105-5.789l6.842-8.421A7.348,7.348,0,0,1,43.337,6.3a6.54,6.54,0,0,1,2.105.263c5.526.263,14.211,3.158,25.263,8.158,3.158,1.316,5.789,2.105,7.895,2.105a21.5,21.5,0,0,0,6.842-1.579,34.456,34.456,0,0,1,8.947-2.105h1.579l15.263,33.947-1.842.526s-1.842,1.053-5.789,3.421a16.3,16.3,0,0,0-3.684,3.684C97.811,57.089,95.968,59.458,92.811,59.458Z" transform="translate(-28.6 -6.3)"/></g><g transform="translate(77.52 18.746)"><path class="d" d="M93.253,13.9c-9.474.526-12.632,7.105-25,1.316C55.1,9.43,47.727,7.588,43.517,7.325A5.808,5.808,0,0,0,37.99,8.641l-7.105,8.684a5.595,5.595,0,0,0,8.421,7.368l5.526-5.263h0C70.885,27.062,87.2,55.483,91.411,55.483c3.421,0,5.526-5.526,9.474-8.158a34.29,34.29,0,0,1,6.053-3.421Z" transform="translate(-29.458 -7.123)"/></g><g transform="translate(134.035 16.765)"><rect class="c" width="10.526" height="45.526" transform="translate(0 4.522) rotate(-25.443)"/></g><g transform="translate(140.895 -2.368)"><path class="c" d="M103.247,55.211,80.089,67.053,54.3,12.842,77.458,1Z" transform="translate(-54.3 -1)"/></g></g></svg>