<svg xmlns="http://www.w3.org/2000/svg" viewBox="0 0 90.839 100"><defs><style>.a{fill:#202126;}</style></defs><g transform="translate(-22.934 -50.256)"><g transform="translate(22.934 50.256)"><g transform="translate(0)"><path class="a" d="M101.306,115.12,55.12,61.6,40.9,73.885,56.944,92.5l6.685,3.771,3.039,7.541,7.049,4.136,3.4,8.028,6.563,3.527,3.4,8.028a47.24,47.24,0,0,0,14.22,1.338Z" transform="translate(-10.467 -28.954)"/><path class="a" d="M91.5,115.892,48.352,65.9,45.8,68.089l43.147,49.992a1.722,1.722,0,0,0,2.431.122A1.488,1.488,0,0,0,91.5,115.892Z" transform="translate(-9.412 -28.024)"/><path class="a" d="M60.652,81.954A30.171,30.171,0,0,0,71.1,58.6l-35,30.287A30.19,30.19,0,0,0,60.652,81.954Z" transform="translate(-11.501 -29.603)"/><g transform="translate(0 0)"><path class="a" d="M26.118,41.985a29.442,29.442,0,0,0,14.22,51.33l34.518-29.8a28.8,28.8,0,0,0-7.171-18.489A29.34,29.34,0,0,0,26.118,41.985ZM51.763,71.664A9.826,9.826,0,1,1,52.736,57.8,9.919,9.919,0,0,1,51.763,71.664Z" transform="translate(-15.861 -34.761)"/></g></g></g></g></svg>