<svg xmlns="http://www.w3.org/2000/svg" viewBox="0 0 99.828 100"><defs><style>.a{fill:#202126;}.b{fill:#fff;}</style></defs><g transform="translate(-30.048 -29.935)"><g transform="translate(30.048 29.935)"><path class="a" d="M117.185,37.132h0a13.547,13.547,0,0,0-6.62-8.517.1.1,0,0,1-.105-.105,2.633,2.633,0,0,1-.736-.421c-.105,0-.21-.105-.315-.105-.21-.105-.42-.105-.525-.21-.21-.105-.315-.105-.525-.21-.105,0-.21-.105-.315-.105a2.471,2.471,0,0,0-.841-.21h0a123.81,123.81,0,0,0-69.981,0h0a13.226,13.226,0,0,0-6.3,3.68,13.959,13.959,0,0,0-3.573,6.309h0a124.07,124.07,0,0,0,0,70.032s.21.526.315.841a.386.386,0,0,0,.105.315c.105.21.105.421.21.526.105.21.105.315.21.526.105.105.105.21.21.315.105.21.21.526.315.736l.105.105a14.027,14.027,0,0,0,8.511,6.519h0A124.559,124.559,0,0,0,72.317,122.2a123.455,123.455,0,0,0,34.991-5.047h0a16.107,16.107,0,0,0,3.888-1.682h0c.315-.21.525-.421.841-.631l.105-.105c.21-.21.42-.315.63-.526.105-.105.21-.21.315-.21l.42-.421.42-.421.315-.315c.21-.21.315-.421.525-.631,0-.105.105-.105.105-.21a2.29,2.29,0,0,0,.525-.841h0a12.848,12.848,0,0,0,1.681-3.891h0a124.814,124.814,0,0,0,5.044-35.016A121.254,121.254,0,0,0,117.185,37.132ZM26.4,40.707Zm77.232-13.46Z" transform="translate(-22.3 -22.2)"/><path class="b" d="M33.4,36S45.169,60.606,62.191,75.537l3.573-3.26C65.764,72.383,44.958,56.61,33.4,36Z" transform="translate(-21.736 -21.489)"/><path class="b" d="M107.664,36.4S96.21,60.585,79.083,75.622L75.3,72.783C75.3,72.678,96,57.01,107.664,36.4Z" transform="translate(-19.609 -21.468)"/><g transform="translate(9.247 50.368)"><path class="b" d="M31.1,111.74S47.072,85.452,65.04,70.1l2.627,1.577C67.667,71.782,53.692,81.982,31.1,111.74Z" transform="translate(-31.1 -70.1)"/><g transform="translate(44.763 0.105)"><path class="b" d="M110.162,111.735S94.3,85.447,76.327,70.2L73.7,71.777S87.57,81.977,110.162,111.735Z" transform="translate(-73.7 -70.2)"/></g></g><path class="b" d="M75.3,90.983A15.972,15.972,0,1,0,91.272,75,15.97,15.97,0,0,0,75.3,90.983Z" transform="translate(-19.609 -19.479)"/><g transform="translate(65.043 61.83)"><path class="a" d="M94.708,81V99.927H89.454V87.73a15.783,15.783,0,0,1-2.417,1.577A19.571,19.571,0,0,1,84.2,90.464V86.047a11.742,11.742,0,0,0,3.993-2A8.686,8.686,0,0,0,90.4,81.105h4.308Z" transform="translate(-84.2 -81)"/></g><path class="b" d="M92.185,58.581C88.192,62.787,75.478,74.564,71.8,75.09c-3.678-.421-16.392-12.3-20.385-16.509A147.418,147.418,0,0,1,30.4,30.4s5.989,13.46,19.544,29.022c4.623,5.258,11.874,13.354,20.07,18.191a3.3,3.3,0,0,0,3.573,0c8.2-4.942,15.446-12.934,20.07-18.191C107.211,43.86,113.1,30.505,113.1,30.505A150.805,150.805,0,0,1,92.185,58.581Z" transform="translate(-21.889 -21.777)"/></g></g></svg>