<svg xmlns="http://www.w3.org/2000/svg" viewBox="0 0 116.385 101"><defs><style>.a{fill:#202126;}.a,.b{stroke:#1d2c36;}.b{fill:none;}</style></defs><g transform="translate(-31.932 -45.456)"><g transform="translate(32.432 45.956)"><path class="a" d="M138.885,40.329c0-3.846-2.785-7.029-6.233-7.029H29.733c-3.448,0-6.233,3.183-6.233,7.029v59.814H138.885Z" transform="translate(-23.5 -33.3)"/><path class="b" d="M23.5,83.7v9.151c0,3.846,2.785,7.029,6.233,7.029H132.651c3.448,0,6.233-3.183,6.233-7.029V83.7Z" transform="translate(-23.5 -16.857)"/><path class="b" d="M85.141,111.285c-4.244-2.52-4.111-7.56-4.111-7.56V95.9H60.605v7.825s.133,5.04-4.111,7.56H55.3v1.592H86.334v-1.592Z" transform="translate(-13.125 -12.876)"/><path class="a" d="M0,0H31.034V1.592H0Z" transform="translate(42.175 98.408)"/></g></g></svg>