<svg xmlns="http://www.w3.org/2000/svg" viewBox="0 0 57.036 100"><defs><style>.a{fill:#202126;}.b{fill:#fff;}</style></defs><g transform="translate(-55.919 -30.705)"><g transform="translate(55.919 30.705)"><path class="a" d="M119.836,129.36a5.144,5.144,0,0,1-5.143,5.14H67.943a5.144,5.144,0,0,1-5.143-5.14V39.64a5.144,5.144,0,0,1,5.143-5.14h46.751a5.144,5.144,0,0,1,5.143,5.14Z" transform="translate(-62.8 -34.5)"/><path class="b" d="M107.951,172.777a1.482,1.482,0,0,1-1.469,1.469H99.869a1.482,1.482,0,0,1-1.469-1.469v-6.609a1.482,1.482,0,0,1,1.469-1.469h6.612a1.482,1.482,0,0,1,1.469,1.469Z" transform="translate(-74.624 -77.784)"/></g></g></svg>