<svg xmlns="http://www.w3.org/2000/svg" viewBox="0 0 93.442 100"><defs><style>.a{fill:#202126;}</style></defs><g transform="translate(-1047.151 -1230)"><g transform="translate(1024 1230)"><path class="a" d="M113.543,67.184c3.751-5.341,4.525-13.089-.445-17.569,1.854-2.882,3.662-7,2.725-11.226-1.067-4.812-6.191-6.66-9.151-7.334a36.013,36.013,0,0,0-8.062-.836A84.263,84.263,0,0,0,83.8,31.88c-.071-8.108-1.384-15.13-3.9-20.883C77.925,6.5,72.052,0,66.585,0c-2.43,0-4.477,1.221-6.087,3.63C58.717,6.293,58.388,9.8,58.1,12.9l-.067.7c-.222,2.284-.359,4.6-.491,6.849-.14,2.382-.285,4.844-.532,7.25-.4,3.88-1.178,8.847-3.7,12.853-1.818,2.891-4.972,4.357-9.374,4.358-.177,0-.354,0-.532-.007V40.92H23.15V97.659H43.4V94.37c9.424.36,18.929,1.643,28.129,2.884C78.4,98.18,85.5,99.139,92.528,99.71l.231.018c1.64.134,3.334.272,5,.272h0c2.922,0,6.685-.361,9.872-3.172,3.558-3.14,3.827-8.884,2.511-13.359C113.9,79.422,116.636,73.172,113.543,67.184ZM30.134,53.11V46.888h6.222V53.11Zm74.35,27.337a2.953,2.953,0,0,0-.786,3.1c.99,2.36,1.493,5.73.383,7.933a3.952,3.952,0,0,1-2.726,2.107,18.784,18.784,0,0,1-4.472.473,61.065,61.065,0,0,1-8.32-.781c-1.093-.152-2.157-.3-3.173-.419-4.279-.493-8.632-1.079-12.841-1.645C63.023,89.937,53.183,88.613,43.4,88.25V51.007c.24.006.476.011.709.011,17.328,0,18.671-18.728,19.652-32.4.139-1.943.271-3.778.438-5.5l.057-.637c.17-1.947.455-5.2,1.916-6.167A1.8,1.8,0,0,1,67.2,6c2.474,0,5.609,4.429,6.66,6.45C76.727,17.975,78,25.74,77.628,35.535a2.777,2.777,0,0,0,.78,2.076,3.415,3.415,0,0,0,3.028.918C87.029,37.482,92.812,36.4,98.545,36.4a36.612,36.612,0,0,1,5.963.456c3.44.563,5.278,1.7,5.463,3.374.2,1.846-.727,3.777-1.664,5.424a27.807,27.807,0,0,1-1.778,2.636,3.537,3.537,0,0,0-.747,2.947,2.607,2.607,0,0,0,1.478,1.844,5.179,5.179,0,0,1,3.14,3.876,9.534,9.534,0,0,1-2.776,7.84,3.053,3.053,0,0,0-.42,3.771C110.889,73.506,107.081,78.13,104.483,80.447Z"/></g></g></svg>