<svg xmlns="http://www.w3.org/2000/svg" viewBox="0 0 91.766 103"><defs><style>.a{fill:#202126;}.a,.b,.c,.d{stroke:#202126;stroke-linecap:round;stroke-linejoin:round;stroke-miterlimit:10;stroke-width:3px;}.b{fill:rgba(0,0,0,0);}.c{fill:#fafbfc;}.d{fill:none;}</style></defs><g transform="translate(0)"><g transform="translate(1.5 1.5)"><g transform="translate(0 39.241)"><path class="a" d="M6.563,56.363h0A5,5,0,0,1,1.5,51.3V31.363A5,5,0,0,1,6.563,26.3h0a5,5,0,0,1,5.063,5.063V51.142A5.133,5.133,0,0,1,6.563,56.363Z" transform="translate(-1.5 -26.3)"/><path class="a" d="M56.263,56.363h0A5,5,0,0,1,51.2,51.3V31.363A5,5,0,0,1,56.263,26.3h0a5,5,0,0,1,5.063,5.063V51.142A5.238,5.238,0,0,1,56.263,56.363Z" transform="translate(27.439 -26.3)"/></g><path class="b" d="M4.7,40.741a39.241,39.241,0,0,1,78.481,0" transform="translate(0.363 -1.5)"/><g transform="translate(38.291 69.304)"><path class="b" d="M64.353,45.3,59.448,58.275A22.672,22.672,0,0,1,31.6,72.041h0" transform="translate(-22.265 -45.3)"/><path class="c" d="M37.725,63.113A6.013,6.013,0,1,1,31.713,57.1,6.01,6.01,0,0,1,37.725,63.113Z" transform="translate(-25.7 -38.429)"/></g></g><line class="d" x1="14.241" transform="translate(36.31 72.386)"/></g></svg>