<svg xmlns="http://www.w3.org/2000/svg" viewBox="0 0 106.464 100"><defs><style>.a,.b{fill:#202126;}.b{stroke:#f7f7f7;}.c{fill:#fff;}</style></defs><g transform="translate(-40.827 -46.171)"><g transform="translate(40.827 46.17)"><path class="a" d="M129.936,123.238A10.466,10.466,0,0,1,119.474,133.7H40.262A10.466,10.466,0,0,1,29.8,123.238V44.162A10.466,10.466,0,0,1,40.262,33.7h79.076A10.466,10.466,0,0,1,129.8,44.162v79.076Z" transform="translate(-29.8 -33.7)"/><path class="b" d="M115.055,63H90.639C85.913,63,82.2,67.62,82.2,73.19c0,5.707,3.826,10.19,8.439,10.19h24.416a2.125,2.125,0,0,0,1.913-2.31V65.31A2.117,2.117,0,0,0,115.055,63Z" transform="translate(-11.004 -23.19)"/><path class="c" d="M85.9,71.863A5.163,5.163,0,1,0,91.063,66.7,5.161,5.161,0,0,0,85.9,71.863Z" transform="translate(-9.677 -21.863)"/><g transform="translate(36.141 18.75)"><path class="c" d="M70.135,107.283A2.725,2.725,0,0,1,67.417,110h0a2.725,2.725,0,0,1-2.717-2.717V50.217A2.725,2.725,0,0,1,67.417,47.5h0a2.725,2.725,0,0,1,2.717,2.717Z" transform="translate(-53.423 -47.5)"/><path class="c" d="M57.623,95.228a2.506,2.506,0,0,1,2.174-.679,3.1,3.1,0,0,1,1.63.815h0a9.156,9.156,0,0,0,6.25,3.533,9.454,9.454,0,0,0,2.446-18.75h0a4.827,4.827,0,0,1-1.359-.272,14.686,14.686,0,1,1,14.4-23.641h0a2.6,2.6,0,0,1,.543,2.038,2.64,2.64,0,0,1-2.989,2.31,3.1,3.1,0,0,1-1.63-.815c-.136-.136-.136-.272-.272-.272a9.684,9.684,0,0,0-5.978-3.261,9.454,9.454,0,0,0-2.446,18.75h.272c.408,0,.679.136,1.087.136a14.7,14.7,0,0,1-5.027,28.94A15.366,15.366,0,0,1,57.215,98.9l-.272-.272a3.12,3.12,0,0,1-.543-1.9,1.931,1.931,0,0,1,.272-.815A1.733,1.733,0,0,0,57.623,95.228Z" transform="translate(-56.4 -46.315)"/></g></g></g></svg>